<svg width="345" height="385" viewBox="0 0 345 385" fill="none" xmlns="http://www.w3.org/2000/svg">
<g clip-path="url(#clip0)">
<path opacity="0.58" d="M154.43 373.72H72.7698H42.0098L96.6898 259.8L154.43 373.72Z" fill="white"/>
<path opacity="0.58" d="M33.4399 354.95L22.6699 351.6L42.0099 207.3L77.4599 232.5L33.4399 354.95Z" fill="white"/>
<path d="M318.88 373.72L332.62 329.54L194.68 226.45L42.0098 207.3L72.9398 245.1L65.5698 324.63L154.43 373.72H318.88Z" fill="white"/>
<path d="M343.69 374.72H1C0.45 374.72 0 374.27 0 373.72C0 373.17 0.45 372.72 1 372.72H343.69C344.24 372.72 344.69 373.17 344.69 373.72C344.69 374.27 344.24 374.72 343.69 374.72Z" fill="white"/>
<path d="M42.0097 374.72C41.6297 374.72 41.2697 374.5 41.0997 374.14L32.7197 355.77L22.5197 352.6H11.9697C11.4197 352.6 10.9697 352.15 10.9697 351.6C10.9697 351.05 11.4197 350.6 11.9697 350.6L22.9697 350.64L34.1697 354.12L42.9197 373.3C43.1497 373.8 42.9297 374.4 42.4197 374.63C42.2897 374.69 42.1497 374.72 42.0097 374.72Z" fill="white"/>
<path d="M16.74 357.54H1C0.45 357.54 0 357.09 0 356.54C0 355.99 0.45 355.54 1 355.54H16.74C17.29 355.54 17.74 355.99 17.74 356.54C17.74 357.09 17.3 357.54 16.74 357.54Z" fill="white"/>
<path d="M332.62 368.03H320.96C320.41 368.03 319.96 367.58 319.96 367.03C319.96 366.48 320.41 366.03 320.96 366.03H332.62C333.17 366.03 333.62 366.48 333.62 367.03C333.62 367.58 333.18 368.03 332.62 368.03Z" fill="white"/>
<path d="M307.14 384.74H95.4102C94.8602 384.74 94.4102 384.29 94.4102 383.74C94.4102 383.19 94.8602 382.74 95.4102 382.74H307.14C307.69 382.74 308.14 383.19 308.14 383.74C308.14 384.29 307.69 384.74 307.14 384.74Z" fill="white"/>
<path opacity="0.14" d="M245.741 335.573C249.278 330.344 231.452 312.104 205.924 294.83C180.397 277.557 156.835 267.793 153.297 273.021C149.759 278.249 167.586 296.49 193.113 313.763C218.641 331.036 242.203 340.801 245.741 335.573Z" fill="#5217FF"/>
<path d="M187.15 251.28L190.07 282.83C190.07 282.83 184.58 279.02 181.06 279.44C175.83 280.07 171.99 285.83 173.11 293.37L198.58 295.49L216.3 258.01L200.02 252.02L187.15 251.28Z" fill="#FF7B00"/>
<path d="M254.67 201.26L293.87 201.65C292.01 200.04 289.2 197.54 289.35 191.93C289.56 183.88 300.86 179.6 300.86 179.6L304 214L268.88 228.36L262.88 213.9L254.67 201.26Z" fill="#FF9800"/>
<path d="M274.35 189.12C274.35 189.12 283.01 201.01 271.96 223.18C260.92 245.35 225.84 264.58 196.16 265.9C166.48 267.22 151.68 236.15 151.68 236.15L229.81 221.1L240.39 214.22L268.41 189.32L274.35 189.12Z" fill="#FFD000"/>
<path d="M146.5 232.95L113.05 193.49C113.05 193.49 98.5201 207.98 88.2901 200.53C78.0601 193.08 87.0801 183.67 91.2301 181.08C95.3801 178.49 98.5601 177.78 98.5601 177.78L100.11 151.93L156.21 98.35L166.75 97.03C166.75 97.03 185.17 94.98 197.98 95.01C210.79 95.04 217.12 98.42 221.78 102.62C226.43 106.82 241.67 124.54 243.19 126.75C244.71 128.95 244.84 131.32 239.46 135.7L262.29 168.29L267.92 176.8L260.64 193.83L244.55 210.51L232.62 220.52L213.65 226.66L146.5 232.95Z" fill="#F84C86"/>
<path d="M146.5 232.95L113.05 193.49C113.05 193.49 98.5201 207.98 88.2901 200.53C78.0601 193.08 87.0801 183.67 91.2301 181.08C95.3801 178.49 98.5601 177.78 98.5601 177.78L100.11 151.93L156.21 98.35L166.75 97.03C166.75 97.03 185.17 94.98 197.98 95.01C210.79 95.04 217.12 98.42 221.78 102.62C226.43 106.82 241.67 124.54 243.19 126.75C244.71 128.95 244.84 131.32 239.46 135.7L262.29 168.29L267.92 176.8L260.64 193.83L244.55 210.51L232.62 220.52L213.65 226.66L146.5 232.95Z" fill="url(#paint0_linear)"/>
<path d="M254.67 215.98L240.85 197.05L240.39 214.22L254.67 215.98Z" fill="#FF9800"/>
<path d="M222.33 221.04L146.5 232.95L122.16 266.89L228.06 224.05L222.33 221.04Z" fill="#FF7B00"/>
<path d="M267.92 176.8L287.31 180.74L249.02 208.23L247.12 205.64L267.92 176.8Z" fill="#FF9800"/>
<path d="M295.24 142.47C295.63 139.03 294.25 133.91 287.84 126.69C273.73 110.78 245.62 131.02 245.62 131.02C230.21 141.81 205.9 165.66 203.36 170.05C200.82 174.45 200.11 178.23 204.29 184.45C207.06 188.57 210.46 192.91 214.98 195.21C216.92 196.2 218.82 196.36 220.87 196.4C221.53 196.42 222.07 195.89 222.09 195.24L222.19 190.49C222.2 189.83 222.87 189.39 223.48 189.63L227.73 191.32C228.34 191.56 229.01 191.12 229.02 190.46L229.11 185.89C229.12 185.23 229.79 184.79 230.4 185.03L234.65 186.72C235.26 186.96 235.93 186.52 235.94 185.86L236.03 181.29C236.04 180.63 236.71 180.19 237.32 180.43L241.57 182.12C242.18 182.36 242.85 181.92 242.86 181.26L242.95 176.69C242.96 176.03 243.63 175.59 244.24 175.83L248.48 177.52C249.09 177.76 249.76 177.32 249.77 176.66L249.86 172.09C249.87 171.43 250.54 170.99 251.15 171.23L255.39 172.92C256 173.16 256.67 172.72 256.68 172.06L256.77 167.49C256.78 166.83 257.45 166.39 258.06 166.63L262.3 168.32C262.91 168.56 263.58 168.12 263.59 167.46L263.68 162.9C263.69 162.24 264.36 161.8 264.97 162.04L269.21 163.73C269.82 163.97 270.49 163.53 270.5 162.87L270.59 158.3C270.6 157.64 271.27 157.2 271.88 157.44L276.12 159.13C276.73 159.37 277.4 158.93 277.41 158.27L277.5 153.7C277.51 153.04 278.18 152.6 278.79 152.84L283.04 154.54C283.65 154.78 284.31 154.35 284.33 153.69L284.47 148.7C284.49 148.1 285.06 147.66 285.65 147.81L289.83 148.87C290.36 149 290.91 148.89 291.34 148.55C292.6 147.67 294.89 145.5 295.24 142.47Z" fill="#5217FF"/>
<path d="M143.27 90.92L87.0399 21.79C85.0699 19.37 85.2999 15.85 87.5699 13.72C94.7899 6.92002 112.69 -5.18998 143.49 2.45002C161.61 6.95002 176.91 19.15 184.57 36.3C187.9 43.74 189.74 51.93 189.13 60.06C188.2 72.49 180.54 82.43 172.48 91.37C162.96 101.94 151.8 110.99 140.24 119.21C116.07 136.4 100.42 154.57 107.17 160.78C113.92 166.99 133.96 152.2 133.96 152.2L160.17 192.77L137.32 208.52L116.57 185.57C113.93 182.65 110.67 180.32 106.96 178.99C104.55 178.13 101.7 177.55 98.5499 177.79C98.5499 177.79 84.9399 160.82 88.2899 145C91.5299 129.73 101.58 123.06 101.58 123.06L143.27 90.92Z" fill="#5217FF"/>
<path d="M212.82 242.42C212.82 242.42 206.71 238.65 205.36 240.13C204 241.61 206.67 247.23 206.67 247.23C206.67 247.23 200.02 252.26 201.43 253.87C202.84 255.48 208.5 255.44 208.5 255.44C208.5 255.44 210.55 260.99 212.23 260.38C213.92 259.77 215.59 252.71 215.59 252.71C215.59 252.71 224.26 254.5 224.55 251.69C224.74 249.82 219.24 246.32 219.24 246.32C219.24 246.32 221.86 240.67 220.42 239.47C218.98 238.3 212.82 242.42 212.82 242.42Z" fill="#FF9800"/>
<path d="M90.9198 190.17C90.4098 190.17 89.9798 189.79 89.9298 189.27C89.8698 188.72 90.2698 188.23 90.8198 188.17L105.81 186.64C106.38 186.6 106.85 186.98 106.91 187.53C106.97 188.08 106.57 188.57 106.02 188.63L91.0298 190.16C90.9898 190.17 90.9598 190.17 90.9198 190.17Z" fill="#5217FF"/>
<path d="M99.4199 195.2C98.8799 195.2 98.4399 194.77 98.4199 194.23L98.2599 188.33C98.2499 187.78 98.6799 187.32 99.2299 187.3C99.7699 187.28 100.24 187.72 100.26 188.27L100.42 194.17C100.43 194.72 99.9999 195.18 99.4499 195.2C99.4399 195.2 99.4299 195.2 99.4199 195.2Z" fill="#5217FF"/>
<path d="M208.74 160.91C205.08 160.91 200.99 157.59 198.02 154.55C196.23 152.72 188.78 142.7 191.35 138.55C193.83 134.53 201.92 138.94 202.84 139.45C203.32 139.72 203.49 140.33 203.22 140.81C202.95 141.29 202.34 141.46 201.86 141.19C199.49 139.86 194.22 137.72 193.06 139.6C191.56 142.03 196.84 150.46 199.46 153.15C203.73 157.53 207.53 159.56 209.9 158.72C212.69 157.73 229.05 144.35 239.36 135.6C239.78 135.24 240.41 135.3 240.77 135.72C241.13 136.14 241.08 136.77 240.65 137.13C237.99 139.38 214.59 159.19 210.56 160.61C209.97 160.82 209.36 160.91 208.74 160.91Z" fill="#5217FF"/>
<path d="M142.97 215.95C142.67 215.95 142.37 215.81 142.17 215.56C141.84 215.12 141.92 214.49 142.36 214.16L163.16 198.28C163.6 197.94 164.23 198.03 164.56 198.47C164.89 198.91 164.81 199.54 164.37 199.87L143.57 215.75C143.4 215.88 143.18 215.95 142.97 215.95Z" fill="#5217FF"/>
<path d="M149.28 217.07C148.97 217.07 148.67 216.93 148.47 216.66C148.14 216.21 148.24 215.59 148.69 215.26L165.27 203.16C165.72 202.83 166.34 202.93 166.67 203.38C167 203.83 166.9 204.45 166.45 204.78L149.87 216.88C149.69 217.01 149.48 217.07 149.28 217.07Z" fill="#5217FF"/>
<path d="M156.91 217.31C156.61 217.31 156.31 217.17 156.11 216.91C155.78 216.47 155.86 215.84 156.31 215.51L167.37 207.16C167.81 206.83 168.44 206.91 168.77 207.36C169.1 207.8 169.02 208.43 168.57 208.76L157.51 217.11C157.33 217.24 157.12 217.31 156.91 217.31Z" fill="#5217FF"/>
<path d="M251.92 241.92C251.57 241.92 251.23 241.74 251.05 241.41L237.57 217.47C237.3 216.99 237.47 216.38 237.95 216.11C238.43 215.84 239.04 216.01 239.31 216.49L252.79 240.43C253.06 240.91 252.89 241.52 252.41 241.79C252.25 241.88 252.08 241.92 251.92 241.92Z" fill="#FF9800"/>
<path d="M240.39 214.22L207.23 213.12L237.43 228.96L240.39 214.22Z" fill="#FF9800"/>
<path d="M227.34 122.58C230.06 120.63 228.38 117.91 226.64 115.4C224.9 112.89 214.48 100.82 205.92 101.44C197.36 102.06 199.29 105.92 201.02 106.93C202.75 107.94 208.56 106.54 212.8 110.64C217.04 114.74 220.19 120.55 222.07 121.89C225.5 124.34 227.34 122.58 227.34 122.58Z" fill="#FF80AC"/>
<path opacity="0.74" d="M132 142.91C122.69 150.49 117.54 147.87 118.38 143.8C119.22 139.72 137.18 127 138.32 132.11C139.45 137.22 132 142.91 132 142.91Z" fill="#CF68EA"/>
<path opacity="0.76" d="M101.77 15.1799C101.82 14.8399 101.88 14.4799 102.04 14.1399C103.85 10.3499 112.32 8.19994 117.22 7.78994C124.36 7.18994 133.81 7.02994 140.16 10.9299C142.34 12.2699 144.02 13.8299 143.71 16.5999C143.17 21.4299 133.65 23.9899 128.13 24.4299C120.99 24.9899 111.53 25.0899 105.2 21.1599C103.03 19.8099 101.37 17.7399 101.77 15.1799Z" fill="#9A78FF"/>
<path d="M165.97 121.34C159.85 121.04 148.62 128.56 151.37 138.49C154.13 148.42 169.17 153.54 178.5 148.42C187.83 143.3 183.62 128.26 178.5 124.65C173.38 121.04 165.97 121.34 165.97 121.34Z" fill="white"/>
<path d="M192.58 119.05C192.44 119.06 192.3 119.08 192.16 119.08C186.74 119.44 165.86 118.45 170.9 108.3C175.19 99.67 195.41 103.99 199.29 108.3C204.4 113.97 198.59 118.46 192.58 119.05Z" fill="white"/>
<path d="M166.72 135.73C166.58 135.44 166.44 135.15 166.28 134.87C165.5 133.47 164.31 132.86 162.89 132.29C161.89 131.89 161.09 131.09 160.95 129.92C160.86 129.23 160.87 128.33 161.35 127.72C161.68 127.3 162.2 127.09 162.7 127.01C164.76 126.64 167.42 127.69 168.88 128.97C171.12 130.92 169.82 134.41 172.84 135.9C175.85 137.39 176.75 136.15 177.78 138.09C178.86 140.12 176.43 141.64 174.66 141.47C173.36 141.34 171.94 140.65 170.81 140.07C169.54 139.43 168.37 138.56 167.58 137.34C167.25 136.84 166.99 136.28 166.72 135.73Z" fill="#5217FF"/>
<path d="M193.14 113.01C192.59 117.41 186.72 114.19 185.25 112.22C183.22 109.52 179.18 111.51 177.55 110.61C175.92 109.72 176.53 106.58 179.64 106.3C182.91 106 186.32 106.89 188.49 109.47C188.83 109.87 189.15 110.32 189.61 110.56C190.95 111.24 191.13 110.54 192.44 111.36C192.96 111.68 193.22 112.19 193.17 112.79C193.16 112.87 193.15 112.94 193.14 113.01Z" fill="#5217FF"/>
<path d="M305.36 146.51L301.5 167.79L332.38 172.05L338.56 148.28L323.29 148.17L321.63 139.87L305.36 146.51Z" fill="#F84C86"/>
<path d="M114.36 222.53L130.03 237.44L107.61 259.09L88.5996 243.54L100.87 234.44L97.3096 226.76L114.36 222.53Z" fill="#F84C86"/>
<path d="M335.13 156.3L324.81 156.21C324.26 156.21 323.81 155.75 323.82 155.2C323.83 154.65 324.31 154.18 324.83 154.21L335.14 154.3C335.69 154.3 336.14 154.76 336.13 155.31C336.13 155.86 335.68 156.3 335.13 156.3Z" fill="#5217FF"/>
<path d="M334.42 166.38C334.34 166.38 334.26 166.37 334.19 166.35L321.22 163.23C320.68 163.1 320.35 162.56 320.48 162.02C320.61 161.48 321.15 161.15 321.69 161.28L334.66 164.4C335.2 164.53 335.53 165.07 335.4 165.61C335.28 166.07 334.87 166.38 334.42 166.38Z" fill="#5217FF"/>
<path d="M96.9202 247.81C96.6402 247.81 96.3502 247.69 96.1602 247.46C95.8002 247.04 95.8602 246.41 96.2802 246.05L102.53 240.77C102.95 240.41 103.58 240.47 103.94 240.89C104.3 241.31 104.24 241.94 103.82 242.3L97.5702 247.58C97.3802 247.74 97.1502 247.81 96.9202 247.81Z" fill="#5217FF"/>
<path d="M101.84 255.19C101.59 255.19 101.33 255.09 101.14 254.9C100.75 254.51 100.75 253.88 101.13 253.49L110.08 244.47C110.47 244.08 111.11 244.08 111.49 244.46C111.88 244.85 111.88 245.48 111.5 245.87L102.55 254.89C102.35 255.09 102.09 255.19 101.84 255.19Z" fill="#5217FF"/>
</g>
<defs>
<linearGradient id="paint0_linear" x1="191.891" y1="194.801" x2="76.3958" y2="58.3063" gradientUnits="userSpaceOnUse">
<stop offset="0.1937" stop-color="#F84C86"/>
<stop offset="0.6855" stop-color="#4E1DEF"/>
</linearGradient>
<clipPath id="clip0">
<rect width="344.69" height="384.74" fill="white"/>
</clipPath>
</defs>
</svg>
