<svg width="333" height="331" viewBox="0 0 333 331" fill="none" xmlns="http://www.w3.org/2000/svg">
<g clip-path="url(#clip0)">
<path opacity="0.14" d="M191.9 330.78C222.723 330.78 247.71 323.612 247.71 314.77C247.71 305.928 222.723 298.76 191.9 298.76C161.077 298.76 136.09 305.928 136.09 314.77C136.09 323.612 161.077 330.78 191.9 330.78Z" fill="#5217FF"/>
<path d="M304.95 174.93L312.87 168.99L303.74 166.02L304.95 174.93Z" fill="#F84C86"/>
<path d="M297.82 145.49C290.73 133.13 280.6 134.26 280.6 134.26L283.94 38.62C283.94 38.62 269.16 -3.26995 240.19 0.210049C203.91 4.57005 203.05 39.4501 203.05 39.4501L246.16 152.12L255.76 163.69L272.77 203.78L307.3 182.46C304.57 166.69 301.23 151.45 297.82 145.49Z" fill="#FF9800"/>
<path d="M332.1 239.95C326.72 225.97 313.75 227.58 313.75 227.58C313.75 227.58 311.12 204.51 307.3 182.45L272.77 203.77L291.67 248.33L299.62 310.09L295.5 323.15C295.5 323.15 301.88 329.22 307.85 324.17C313.4 319.47 313.13 309.17 313.13 309.17C313.13 309.17 320.54 306.68 321.21 299.27C321.62 294.73 319.84 292.44 319.41 285.51C319.07 279.89 336.54 251.49 332.1 239.95Z" fill="white"/>
<path d="M47.7997 200.46L46.9297 210.81L52.4997 208.41L47.7997 200.46Z" fill="#F84C86"/>
<path d="M96.44 294.75C107.26 292.7 115.42 283.13 115.36 271.72C115.34 267.79 113.95 174.9 36.72 120.21C26.23 112.78 11.71 115.26 4.27998 125.75C-3.15002 136.24 -0.670024 150.76 9.81998 158.19C67.18 198.81 68.81 271.34 68.82 272.07C68.89 284.92 79.36 295.24 92.21 295.17C93.66 295.15 95.07 295.01 96.44 294.75Z" fill="#FF7B00"/>
<path d="M59.4194 194.72C57.1994 191.82 53.5994 194.99 54.6294 198C55.6594 201.01 58.0194 203.99 60.3694 202.79C62.7194 201.59 61.2194 197.27 60.7694 196.38C60.3294 195.5 59.4194 194.72 59.4194 194.72Z" fill="#FF9800"/>
<path d="M25.5099 125.14C23.2999 122.96 18.6499 123.56 16.1099 124.61C8.77986 127.63 5.70986 137.14 8.18986 144.43C9.97986 149.69 15.1799 153.14 19.6599 155.96C32.4999 164.04 47.4699 183.06 50.0799 188.05C52.6899 193.04 57.4499 190.43 55.7799 184.25C54.1099 178.07 44.8499 159.05 38.8999 151.69C36.1799 148.32 32.9899 145.48 30.1399 142.24C27.5099 139.25 25.3999 135.35 26.0799 131.43C26.3199 130.04 26.8999 128.66 26.6199 127.28C26.4399 126.37 26.0499 125.67 25.5099 125.14Z" fill="#FF9800"/>
<path d="M64.3497 200L46.9297 210.81L55.6797 230.79L71.4497 225.99L64.3497 200Z" fill="#F84C86"/>
<path d="M235.29 280.53L259.93 300.44C259.93 300.44 259.8 293.76 262.1 291.06C265.52 287.05 272.45 287.05 278.1 292.16L265.75 314.54L217.42 304.66L228.77 291.64L235.29 280.53Z" fill="#FF7B00"/>
<path d="M148.68 285.24L122.54 311.49C123.99 309.5 126.15 306.42 124.73 300.99C122.69 293.2 110.71 291.61 110.71 291.61L115.49 325.83L173.71 305.69L176.25 290.24L148.68 285.24Z" fill="#FF9800"/>
<path d="M134.12 282.67C134.12 282.67 134.91 297.36 157.46 307.59C180.02 317.82 219.36 310.61 243.23 292.9C267.1 275.19 258.97 241.75 258.97 241.75L188.86 279.37L176.31 280.71L138.86 279.07L134.12 282.67Z" fill="#FFD000"/>
<path d="M260.96 236L262.01 184.28C262.01 184.28 282.42 186.35 285.66 174.12C288.89 161.89 275.96 160.27 271.11 160.88C266.26 161.49 263.34 162.95 263.34 162.95L245.83 143.88L168.5 137.72L159.49 143.35C159.49 143.35 143.91 153.38 133.98 161.49C124.06 169.6 121.28 176.22 120.32 182.41C119.36 188.6 118.72 211.97 118.93 214.64C119.14 217.31 120.53 219.23 127.47 219.23L130.33 258.92L131.33 269.07L147.73 277.69L170.74 280.48L186.31 280.71L204.9 273.51L260.96 236Z" fill="#F84C86"/>
<path d="M166.33 291.09L165.11 267.69L176.3 280.71L166.33 291.09Z" fill="#FF9800"/>
<path d="M194.62 274.61L260.96 236L301.26 246.97L192.07 280.56L194.62 274.61Z" fill="#FF7B00"/>
<path d="M131.34 269.06L118.78 284.35L165.83 281.52L165.66 278.31L131.34 269.06Z" fill="#FF9800"/>
<path d="M88.4802 259.66C86.0102 257.24 83.8502 252.4 84.2602 242.74C85.1602 221.49 119.75 219.46 119.75 219.46C138.51 218.1 172.42 221.27 177.16 223.08C181.91 224.89 184.85 227.37 185.52 234.83C185.97 239.78 186.07 245.29 184.01 249.92C183.13 251.91 181.75 253.24 180.19 254.57C179.69 255 178.94 254.93 178.51 254.43L175.43 250.8C175 250.3 174.21 250.38 173.89 250.95L171.66 254.95C171.34 255.53 170.54 255.6 170.12 255.1L167.16 251.61C166.73 251.11 165.94 251.18 165.62 251.76L163.4 255.75C163.08 256.33 162.28 256.4 161.86 255.9L158.9 252.41C158.47 251.91 157.68 251.98 157.36 252.56L155.13 256.55C154.81 257.13 154.01 257.2 153.59 256.7L150.63 253.21C150.2 252.71 149.41 252.79 149.09 253.36L146.87 257.35C146.55 257.93 145.75 258 145.33 257.5L142.38 254.01C141.95 253.51 141.16 253.58 140.84 254.16L138.62 258.15C138.3 258.73 137.5 258.8 137.08 258.3L134.13 254.81C133.7 254.31 132.91 254.38 132.59 254.96L130.37 258.95C130.05 259.53 129.25 259.6 128.83 259.1L125.88 255.61C125.45 255.11 124.66 255.18 124.34 255.76L122.12 259.75C121.8 260.33 121 260.4 120.58 259.9L117.63 256.41C117.2 255.91 116.41 255.98 116.09 256.56L113.87 260.55C113.55 261.13 112.75 261.2 112.33 260.7L109.38 257.21C108.95 256.71 108.16 256.78 107.84 257.36L105.61 261.36C105.29 261.93 104.5 262.01 104.07 261.52L100.81 257.73C100.42 257.27 99.7002 257.3 99.3402 257.78L96.7702 261.24C96.4502 261.68 95.9402 261.93 95.4002 261.94C93.8102 262.03 90.6602 261.79 88.4802 259.66Z" fill="#5217FF"/>
<path d="M173.84 123.78V34.66C173.84 31.54 171.44 28.96 168.33 28.73C158.44 28.01 136.91 29.91 117.84 55.28C106.62 70.2 102.45 89.32 107.33 107.46C109.44 115.33 113.18 122.85 118.78 128.76C127.35 137.82 139.56 140.69 151.46 142.55C165.51 144.74 179.88 144.72 194.04 143.81C223.64 141.89 247.24 146.12 245.92 155.19C244.6 164.26 219.72 165.44 219.72 165.44L224.99 213.45L252.65 211.25L254.27 180.35C254.48 176.42 255.54 172.55 257.57 169.19C258.89 167 260.75 164.76 263.33 162.95C263.33 162.95 263.18 141.2 250.6 131.04C238.45 121.23 226.45 122.4 226.45 122.4L173.84 123.78Z" fill="#5217FF"/>
<path d="M215.48 285.2C215.48 285.2 217.84 278.42 219.83 278.72C221.82 279.02 223.29 285.06 223.29 285.06C223.29 285.06 231.62 284.77 231.54 286.9C231.47 289.04 227.04 292.57 227.04 292.57C227.04 292.57 228.96 298.17 227.26 298.76C225.56 299.35 219.82 294.93 219.82 294.93C219.82 294.93 214.22 301.79 212.23 299.79C210.9 298.46 212.97 292.27 212.97 292.27C212.97 292.27 207.37 289.54 207.74 287.7C208.11 285.88 215.48 285.2 215.48 285.2Z" fill="#FF9800"/>
<path d="M263.86 176.25C263.53 176.25 263.22 176.09 263.02 175.8C262.72 175.34 262.85 174.72 263.31 174.42L275.91 166.14C276.37 165.84 276.99 165.97 277.29 166.43C277.59 166.89 277.46 167.51 277 167.81L264.4 176.09C264.23 176.19 264.04 176.25 263.86 176.25Z" fill="#5217FF"/>
<path d="M273.03 177.23C272.73 177.23 272.43 177.1 272.24 176.84L268.64 172.16C268.3 171.72 268.39 171.09 268.82 170.76C269.26 170.42 269.88 170.51 270.22 170.94L273.82 175.62C274.16 176.06 274.07 176.69 273.64 177.02C273.46 177.17 273.24 177.23 273.03 177.23Z" fill="#5217FF"/>
<path d="M144.74 221.25C136.7 221.25 129.09 221.1 127.46 221.07C126.91 221.06 126.47 220.6 126.48 220.05C126.49 219.5 126.98 219.07 127.5 219.07C141.03 219.35 162.17 219.41 164.95 218.42C167.31 217.58 168.98 213.6 169.53 207.51C169.87 203.77 168.65 193.89 165.95 192.96C163.84 192.22 161.12 197.22 160.12 199.75C159.92 200.26 159.33 200.51 158.82 200.31C158.31 200.11 158.05 199.53 158.26 199.01C158.64 198.03 162.14 189.51 166.6 191.06C171.21 192.66 171.75 205.13 171.52 207.68C171.07 212.63 169.68 218.84 165.62 220.29C163.48 221.06 153.83 221.25 144.74 221.25Z" fill="#5217FF"/>
<path d="M226.18 221.62C225.64 221.62 225.2 221.19 225.18 220.65C225.16 220.1 225.6 219.64 226.15 219.62L252.31 218.81C252.85 218.8 253.32 219.23 253.34 219.78C253.36 220.33 252.92 220.79 252.37 220.81L226.21 221.62C226.2 221.62 226.19 221.62 226.18 221.62Z" fill="#5217FF"/>
<path d="M227.66 226.74C227.13 226.74 226.69 226.33 226.66 225.79C226.63 225.24 227.05 224.77 227.61 224.74L248.1 223.66C248.64 223.64 249.12 224.06 249.15 224.61C249.18 225.16 248.76 225.63 248.2 225.66L227.71 226.74C227.7 226.74 227.68 226.74 227.66 226.74Z" fill="#5217FF"/>
<path d="M228.53 231.15C227.99 231.15 227.55 230.73 227.53 230.19C227.51 229.64 227.94 229.17 228.49 229.15L242.34 228.66C242.9 228.63 243.36 229.07 243.38 229.62C243.4 230.17 242.97 230.64 242.42 230.66L228.57 231.15C228.56 231.15 228.54 231.15 228.53 231.15Z" fill="#5217FF"/>
<path d="M184.21 309.7C183.73 309.7 183.31 309.36 183.23 308.87L178.58 281.79C178.49 281.25 178.85 280.73 179.4 280.64C179.94 280.55 180.46 280.91 180.55 281.46L185.2 308.54C185.29 309.08 184.93 309.6 184.38 309.69C184.32 309.7 184.27 309.7 184.21 309.7Z" fill="#FF9800"/>
<path d="M176.3 280.71L201.33 258.94L187.9 290.28L176.3 280.71Z" fill="#FF9800"/>
<path d="M128.6 201.39C125.25 201.59 124.84 198.43 124.61 195.38C124.38 192.33 124.84 176.39 131.88 171.47C138.92 166.55 139.85 170.77 139.15 172.64C138.45 174.52 133.06 177.09 132.35 182.95C131.65 188.81 132.87 195.3 132.26 197.53C131.14 201.6 128.6 201.39 128.6 201.39Z" fill="#FF80AC"/>
<path d="M215.4 157C227.41 157 229.75 151.73 226.53 149.09C223.31 146.45 201.35 147.92 203.69 152.6C206.03 157.29 215.4 157 215.4 157Z" fill="#FF80AC"/>
<path opacity="0.76" d="M158.24 38.84C157.99 38.61 157.72 38.37 157.38 38.21C153.59 36.42 145.66 40.09 141.6 42.86C135.68 46.9 128.25 52.75 125.78 59.78C124.93 62.19 124.61 64.46 126.6 66.42C130.07 69.82 139.07 65.81 143.62 62.66C149.51 58.59 156.91 52.7 159.34 45.65C160.19 43.22 160.17 40.57 158.24 38.84Z" fill="#9A78FF"/>
<path d="M259.93 300.44C259.93 300.44 259.8 293.76 262.1 291.06C265.52 287.05 272.45 287.05 278.1 292.16L265.75 314.54" fill="#FF7B00"/>
<path d="M291.74 145.88L295.04 169.32L312.87 168.99L310.89 147.86L291.74 145.88Z" fill="#F84C86"/>
<path opacity="0.56" d="M250.29 15.3C250.27 15.22 250.24 15.13 250.2 15.05C249.62 13.6 247.94 12.97 246.41 12.64C240.7 11.39 234.58 12.11 229.32 14.64C224 17.2 219.62 21.54 216.65 26.65C215.26 29.04 214.14 31.71 214.26 34.47C214.35 36.46 215.07 38.36 215.76 40.23C222.61 58.71 226.17 78.54 235.8 95.92C236.57 97.31 237.4 98.71 238.55 99.81C239.7 100.91 241.23 101.7 242.83 101.65C244.54 101.59 246.12 100.56 247.14 99.18C248.16 97.8 248.69 96.12 249 94.44C249.85 89.88 249.23 85.18 248.29 80.64C246.04 69.83 241.55 59.73 238.81 49.08C237.38 43.51 235.37 36.21 237.77 30.6C238.24 29.5 238.92 28.5 239.77 27.65C242.07 25.35 244.96 24.12 247.36 21.98C248.81 20.69 250 19.01 250.34 17.1C250.44 16.51 250.46 15.88 250.29 15.3Z" fill="#FFD000"/>
<path d="M278.41 210.16C278.07 210.16 277.74 209.99 277.55 209.67C277.27 209.19 277.43 208.58 277.9 208.3L312.36 187.89C312.84 187.61 313.45 187.77 313.73 188.24C314.01 188.72 313.85 189.33 313.38 189.61L278.92 210.02C278.76 210.11 278.58 210.16 278.41 210.16Z" fill="#5217FF"/>
<path d="M274.3 219.47C273.96 219.47 273.63 219.3 273.44 218.98C273.16 218.51 273.31 217.89 273.79 217.61L305.47 198.7C305.95 198.42 306.56 198.57 306.84 199.05C307.12 199.52 306.97 200.14 306.49 200.42L274.81 219.33C274.65 219.43 274.47 219.47 274.3 219.47Z" fill="#F84C86"/>
<path d="M180.16 174.38C179.44 169.66 175.73 165.25 176.59 160.49C177.58 155.03 184.43 158.34 187.37 166.44C190.31 174.54 190.63 181.16 187.37 183.42C184.47 185.44 180.96 184.77 180.29 180.94C179.98 179.15 180.34 177.32 180.26 175.51C180.25 175.13 180.22 174.75 180.16 174.38Z" fill="#5217FF"/>
<path d="M165.5 176.19C165.62 176.03 165.73 175.87 165.83 175.7C166.35 174.82 166.65 173.8 167.45 173.11C168.31 172.37 169.31 172.31 170.14 173.15C170.67 173.69 170.83 174.49 170.89 175.24C171.08 177.93 170.17 180.69 168.41 182.73C166.45 185.01 160.48 188.52 158.46 184.52C157.88 183.37 158.03 181.89 158.83 180.89C159.81 179.66 161.08 179.22 162.44 178.56C163.6 177.99 164.72 177.24 165.5 176.19Z" fill="#5217FF"/>
<path d="M158.86 170.51C158.71 170.51 158.56 170.51 158.4 170.5C157.85 170.48 157.42 170.02 157.44 169.46C157.46 168.91 157.9 168.44 158.48 168.5C163.42 168.68 164.36 165.22 164.4 165.08C164.53 164.55 165.07 164.22 165.6 164.34C166.14 164.46 166.47 164.99 166.35 165.53C165.95 167.28 163.88 170.51 158.86 170.51Z" fill="#5217FF"/>
<path d="M170.89 155.68C170.38 155.68 169.94 155.29 169.89 154.76C169.87 154.58 169.55 150.33 172.01 148.21C173.3 147.1 175.05 146.79 177.21 147.3C177.75 147.43 178.08 147.97 177.95 148.5C177.82 149.04 177.28 149.36 176.75 149.24C175.25 148.89 174.1 149.04 173.32 149.71C171.92 150.91 171.81 153.63 171.88 154.58C171.92 155.13 171.51 155.61 170.96 155.66C170.95 155.68 170.92 155.68 170.89 155.68Z" fill="#5217FF"/>
</g>
<defs>
<clipPath id="clip0">
<rect width="332.83" height="330.78" fill="white"/>
</clipPath>
</defs>
</svg>
