<svg width="481" height="343" viewBox="0 0 481 343" fill="none" xmlns="http://www.w3.org/2000/svg">
<path d="M340.45 157.95C339.74 157.95 338.99 157.92 338.22 157.85C332.64 157.35 327.55 153.59 323.89 147.28C316.32 134.22 317.24 116.95 326.03 104.72C323.85 103.65 321.57 102.87 319.23 102.47C311.86 101.18 303.75 103.64 297.53 109.03C286.45 118.64 284.17 134.89 283.8 143.72L272.81 143.26C273.58 124.95 279.8 109.85 290.33 100.72C299.02 93.19 310.53 89.8 321.11 91.63C325.75 92.44 330.1 94.17 334.08 96.55C343.43 89.58 356.41 86.44 371.66 87.59C398.15 89.6 425.56 104.27 435.4 121.73L425.82 127.13C417.75 112.83 393.6 100.28 370.83 98.56C363.81 98.03 352.33 98.26 343.18 103.69C349.74 110.22 354.5 118.44 356.72 126.17C359.02 134.19 359.45 145.21 353.75 152.11C351.47 154.85 347.37 157.95 340.45 157.95ZM334.96 111.12C328.73 119.8 328.03 132.51 333.4 141.75C335.17 144.8 337.34 146.72 339.21 146.89C343.02 147.24 344.49 146.02 345.27 145.08C347.64 142.21 348 135.67 346.14 129.19C344.36 123 340.32 116.3 334.96 111.12Z" fill="#FF7B00"/>
<path opacity="0.14" d="M184.42 342.51C215.243 342.51 240.23 337.393 240.23 331.08C240.23 324.767 215.243 319.65 184.42 319.65C153.597 319.65 128.61 324.767 128.61 331.08C128.61 337.393 153.597 342.51 184.42 342.51Z" fill="#5217FF"/>
<path d="M199.27 295.67L219.55 320.01C219.55 320.01 212.87 319.98 210.2 322.32C206.25 325.8 206.34 332.73 211.54 338.3L233.73 325.62L227.16 294.67L210.28 288.98L199.27 295.67Z" fill="#FF7B00"/>
<path d="M132.21 258.76L115.23 274.87C116.63 272.84 118.72 269.71 117.16 264.32C114.93 256.58 102.92 255.28 102.92 255.28L108.54 289.37L145.59 277.14L140.66 263.69L132.21 258.76Z" fill="#FF9800"/>
<path d="M129.48 238.75C129.48 238.75 122.95 251.93 137.57 271.92C152.19 291.91 190 304.95 219.49 301.26C248.98 297.56 258.32 264.44 258.32 264.44L178.77 262.77L167.18 257.77L135.37 237.95L129.48 238.75Z" fill="#FFD000"/>
<path d="M262.88 260.41L289.2 215.88C289.2 215.88 305.97 227.71 314.79 218.65C323.61 209.59 313.14 201.82 308.62 199.97C304.1 198.12 300.84 197.95 300.84 197.95L294.96 172.74L230.63 129.39L220.02 129.87C220.02 129.87 201.52 130.95 188.89 133.14C176.26 135.33 170.59 139.73 166.72 144.65C162.84 149.57 150.8 169.61 149.68 172.04C148.56 174.47 148.82 176.82 154.86 180.23L137.85 216.2L133.74 225.54L143.79 241.1L162.46 254.83L175.91 262.68L195.64 265.54L262.88 260.41Z" fill="url(#paint0_linear)"/>
<path d="M153.4 261.91L163.83 240.92L167.18 257.77L153.4 261.91Z" fill="#FF9800"/>
<path d="M186.13 261.44L262.88 260.41L292.6 289.75L180.99 265.38L186.13 261.44Z" fill="#FF7B00"/>
<path d="M133.74 225.53L115.29 232.67L157.67 253.32L159.1 250.44L133.74 225.53Z" fill="#FF9800"/>
<path d="M101.02 196.29C100.05 192.97 100.56 187.69 105.66 179.48C116.89 161.42 148.01 176.63 148.01 176.63C165.02 184.66 193 204.08 196.24 207.98C199.49 211.89 200.82 215.5 197.75 222.33C195.71 226.86 193.09 231.71 189.02 234.73C187.27 236.03 185.42 236.51 183.41 236.9C182.77 237.03 182.14 236.6 182.02 235.96L181.12 231.29C181 230.64 180.26 230.32 179.7 230.66L175.8 233.05C175.24 233.39 174.51 233.07 174.38 232.42L173.52 227.93C173.4 227.28 172.66 226.96 172.1 227.3L168.2 229.69C167.64 230.03 166.9 229.71 166.78 229.06L165.92 224.57C165.8 223.92 165.06 223.6 164.5 223.94L160.6 226.33C160.04 226.67 159.31 226.35 159.18 225.7L158.32 221.21C158.2 220.56 157.46 220.24 156.9 220.58L153 222.97C152.44 223.31 151.7 222.99 151.58 222.34L150.72 217.85C150.6 217.2 149.86 216.88 149.3 217.22L145.4 219.61C144.84 219.95 144.1 219.63 143.98 218.98L143.12 214.49C143 213.84 142.26 213.52 141.7 213.86L137.8 216.25C137.24 216.59 136.5 216.27 136.38 215.62L135.52 211.14C135.4 210.49 134.66 210.17 134.1 210.51L130.2 212.9C129.64 213.24 128.9 212.92 128.78 212.27L127.92 207.78C127.8 207.13 127.06 206.81 126.5 207.15L122.6 209.54C122.04 209.88 121.3 209.56 121.18 208.91L120.32 204.42C120.2 203.77 119.46 203.45 118.9 203.79L114.99 206.18C114.43 206.52 113.7 206.2 113.57 205.56L112.59 200.66C112.47 200.07 111.83 199.74 111.28 199.98L107.34 201.73C106.84 201.95 106.28 201.93 105.8 201.67C104.51 200.97 101.88 199.21 101.02 196.29Z" fill="#5217FF"/>
<path d="M242.13 119.87L285.91 42.24C287.44 39.53 286.62 36.0899 284.02 34.3699C275.76 28.8799 256.07 19.9699 227 32.6899C209.9 40.1799 196.88 54.7799 192.21 72.9799C190.19 80.8699 189.75 89.26 191.72 97.16C194.74 109.26 203.96 117.76 213.41 125.22C224.57 134.03 237.1 141.07 249.88 147.23C276.61 160.1 295.09 175.37 289.48 182.63C283.87 189.89 261.63 178.68 261.63 178.68L242.64 223.09L267.81 234.77L284.4 208.65C286.51 205.33 289.33 202.48 292.76 200.55C294.99 199.29 297.71 198.25 300.84 197.95C300.84 197.95 311.39 178.93 305.42 163.9C299.66 149.39 288.63 144.51 288.63 144.51L242.13 119.87Z" fill="#5217FF"/>
<path d="M199.11 280.92C199.11 280.92 204.49 276.17 206.08 277.41C207.67 278.65 205.98 284.63 205.98 284.63C205.98 284.63 213.38 288.46 212.26 290.29C211.15 292.12 205.56 293.02 205.56 293.02C205.56 293.02 204.48 298.84 202.71 298.52C200.94 298.2 198.11 291.53 198.11 291.53C198.11 291.53 189.87 294.76 189.11 292.04C188.61 290.23 193.44 285.85 193.44 285.85C193.44 285.85 189.9 280.72 191.13 279.3C192.35 277.89 199.11 280.92 199.11 280.92Z" fill="#FF9800"/>
<path d="M295.25 209.91C294.73 209.91 294.29 209.51 294.25 208.98C294.21 208.43 294.63 207.95 295.18 207.91L310.22 206.89C310.76 206.89 311.25 207.27 311.29 207.82C311.33 208.37 310.91 208.85 310.36 208.89L295.32 209.91C295.3 209.91 295.27 209.91 295.25 209.91Z" fill="#5217FF"/>
<path d="M302.76 215.28C302.27 215.28 301.84 214.92 301.77 214.42L300.93 208.58C300.85 208.03 301.23 207.53 301.78 207.45C302.33 207.37 302.83 207.75 302.91 208.3L303.75 214.14C303.83 214.69 303.45 215.19 302.9 215.27C302.85 215.27 302.8 215.28 302.76 215.28Z" fill="#5217FF"/>
<path d="M188.44 199.97C188.14 199.97 187.85 199.95 187.55 199.89C183.34 199.17 156.93 183.59 153.93 181.81C153.45 181.53 153.3 180.92 153.58 180.44C153.86 179.96 154.48 179.81 154.95 180.09C166.6 186.98 184.98 197.41 187.89 197.92C190.36 198.34 193.77 195.7 197.24 190.67C199.37 187.58 203.16 178.38 201.27 176.24C199.8 174.58 194.97 177.58 192.86 179.29C192.43 179.64 191.8 179.57 191.45 179.14C191.1 178.71 191.17 178.08 191.6 177.73C192.41 177.07 199.64 171.36 202.77 174.91C206 178.57 200.35 189.69 198.89 191.8C196.26 195.61 192.39 199.97 188.44 199.97Z" fill="#5217FF"/>
<path d="M263.33 243.06C263.17 243.06 263.02 243.02 262.87 242.95L239.69 230.81C239.2 230.55 239.01 229.95 239.27 229.46C239.53 228.97 240.13 228.78 240.62 229.04L263.8 241.18C264.29 241.44 264.48 242.04 264.22 242.53C264.04 242.87 263.69 243.06 263.33 243.06Z" fill="#5217FF"/>
<path d="M257.3 245.24C257.15 245.24 257 245.21 256.86 245.14L238.48 236.01C237.98 235.76 237.78 235.16 238.03 234.67C238.28 234.17 238.88 233.97 239.37 234.22L257.75 243.35C258.25 243.6 258.45 244.2 258.2 244.69C258.03 245.04 257.67 245.24 257.3 245.24Z" fill="#5217FF"/>
<path d="M249.82 246.75C249.67 246.75 249.51 246.71 249.36 246.64L237.05 240.27C236.56 240.02 236.37 239.41 236.62 238.92C236.87 238.43 237.47 238.24 237.97 238.49L250.28 244.86C250.77 245.11 250.96 245.72 250.71 246.21C250.53 246.56 250.18 246.75 249.82 246.75Z" fill="#5217FF"/>
<path d="M160.32 287.03C160.21 287.03 160.09 287.01 159.98 286.97C159.46 286.78 159.19 286.21 159.38 285.69L168.63 259.82C168.82 259.3 169.39 259.03 169.91 259.22C170.43 259.41 170.7 259.98 170.51 260.5L161.26 286.37C161.12 286.77 160.73 287.03 160.32 287.03Z" fill="#FF9800"/>
<path d="M167.18 257.77L199.68 251.09L172.59 271.79L167.18 257.77Z" fill="#FF9800"/>
<path d="M164.6 165.24C161.59 163.77 162.79 160.81 164.08 158.04C165.37 155.27 173.61 141.62 182.15 140.78C190.69 139.94 189.44 144.08 187.9 145.37C186.36 146.66 180.4 146.26 176.91 151.01C173.42 155.76 171.3 162.02 169.66 163.66C166.71 166.67 164.6 165.24 164.6 165.24Z" fill="#FF80AC"/>
<path opacity="0.76" d="M262.01 169.21C272.47 175.11 277.1 171.67 275.59 167.79C274.08 163.91 254.23 154.4 253.97 159.63C253.7 164.86 262.01 169.21 262.01 169.21Z" fill="#FF8080"/>
<path d="M230.26 169.2C225.5 163.84 228.23 150.02 233.63 149.56C236.23 149.34 235.48 152.31 235.14 153.91C234.76 155.7 234.46 157.53 234.6 159.37C234.74 161.22 235.49 162.91 235.83 164.72C236.14 166.41 236.55 169.54 234.23 169.99C231.25 170.56 230.26 169.2 230.26 169.2Z" fill="#5217FF"/>
<path d="M208.9 156.92C209.45 157.44 210.14 157.83 210.92 158C211.84 158.2 212.81 158.22 213.75 158.25C215.29 158.3 216.85 158.13 218.35 157.74C221.28 156.97 224.04 155.28 225.55 152.59C225.58 152.54 225.61 152.48 225.64 152.43C225.97 151.81 226.27 151.14 226.28 150.42C226.29 149.78 226.08 149.16 225.81 148.57C225.75 148.43 225.68 148.29 225.57 148.18C225.44 148.05 225.26 147.99 225.08 147.95C223.42 147.56 222.02 148.77 220.56 149.36C213.6 152.16 213.27 149.07 210.02 150.13C208.55 150.61 207.67 152.18 207.6 153.67C207.54 154.93 208.05 156.1 208.9 156.92Z" fill="#5217FF"/>
<path d="M436.39 92.78L464.95 81.68L443.75 103.09L472.33 124.57L439.21 127.3L448.82 154.56L423.95 137.26L418.83 161.92L411.99 137.37L383.94 146.2L406.14 120.41L370.39 110.41L398.77 105.2L392.74 75.36L418.33 92.84L431.21 64.99L436.39 92.78Z" fill="#FFD000"/>
<path d="M422.18 106.31L434.27 99.19L429.98 109.76L445.58 119.28L427.15 119.17L420.31 133.95L416.51 114.54L401.72 113.15L414.67 106.82L412.18 93.47L422.18 106.31Z" fill="#FF7B00"/>
<path d="M464.399 134.19L474.789 133.25L480.909 144.68L464.399 134.19Z" fill="#FFD000"/>
<path d="M404.289 158.74L398.689 165.16L408.129 170.79L404.289 158.74Z" fill="#FFD000"/>
<path d="M402.38 66.19L407.16 49.4L412.56 72.46L402.38 66.19Z" fill="#FFD000"/>
<path d="M240.9 27.98C240.9 27.98 266.65 20.64 298.4 33.43C315.35 40.26 308.25 26.94 315.12 23.13C316.95 22.11 318.96 22.75 318.26 24.73C317.41 27.1 316.95 30.19 318.22 33.43C320.93 40.31 319.27 51.85 305.39 51.91C291.51 51.97 284.97 43.9 275.37 60.94L240.9 27.98Z" fill="url(#paint1_linear)"/>
<path opacity="0.76" d="M270.27 38.21C270.16 37.89 270.04 37.54 269.83 37.23C267.41 33.8 258.69 33.11 253.8 33.53C246.66 34.14 237.32 35.58 231.71 40.49C229.79 42.17 228.39 44 229.16 46.68C230.51 51.35 240.32 52.27 245.83 51.77C252.96 51.12 262.3 49.62 267.88 44.68C269.81 42.99 271.1 40.67 270.27 38.21Z" fill="#9A78FF"/>
<path d="M329.16 20.65C329.16 26.69 324.26 31.59 318.22 31.59C312.18 31.59 307.28 26.69 307.28 20.65C307.28 14.61 312.18 0 318.22 0C324.26 0 329.16 14.61 329.16 20.65Z" fill="#FFD000"/>
<path d="M318.22 26.83C321.865 26.83 324.82 23.8751 324.82 20.23C324.82 16.5849 321.865 13.63 318.22 13.63C314.575 13.63 311.62 16.5849 311.62 20.23C311.62 23.8751 314.575 26.83 318.22 26.83Z" fill="#FF7B00"/>
<path d="M135.21 168.95C135.21 173.79 131.29 177.72 126.44 177.72C121.59 177.72 117.67 173.8 117.67 168.95C117.67 164.1 121.59 152.4 126.44 152.4C131.29 152.4 135.21 164.11 135.21 168.95Z" fill="#FFD000"/>
<path d="M126.44 173.91C129.362 173.91 131.73 171.542 131.73 168.62C131.73 165.698 129.362 163.33 126.44 163.33C123.519 163.33 121.15 165.698 121.15 168.62C121.15 171.542 123.519 173.91 126.44 173.91Z" fill="#FF7B00"/>
<path d="M303.78 29.7101C303.78 33.3001 300.87 36.2101 297.28 36.2101C293.69 36.2101 290.78 33.3001 290.78 29.7101C290.78 26.1201 293.69 17.4301 297.28 17.4301C300.87 17.4401 303.78 26.1201 303.78 29.7101Z" fill="#FFD000"/>
<path d="M297.271 33.38C299.436 33.38 301.191 31.625 301.191 29.46C301.191 27.2951 299.436 25.54 297.271 25.54C295.106 25.54 293.351 27.2951 293.351 29.46C293.351 31.625 295.106 33.38 297.271 33.38Z" fill="#FF7B00"/>
<path d="M113 175.93C113 179.52 110.09 182.43 106.5 182.43C102.91 182.43 100 179.52 100 175.93C100 172.34 102.91 163.65 106.5 163.65C110.09 163.65 113 172.34 113 175.93Z" fill="#FFD000"/>
<path d="M106.5 179.6C108.665 179.6 110.42 177.845 110.42 175.68C110.42 173.515 108.665 171.76 106.5 171.76C104.335 171.76 102.58 173.515 102.58 175.68C102.58 177.845 104.335 179.6 106.5 179.6Z" fill="#FF7B00"/>
<defs>
<linearGradient id="paint0_linear" x1="212.583" y1="212.092" x2="279.378" y2="139.73" gradientUnits="userSpaceOnUse">
<stop stop-color="#F84C86"/>
<stop offset="1" stop-color="#C80C0C"/>
</linearGradient>
<linearGradient id="paint1_linear" x1="269.389" y1="43.929" x2="304.325" y2="21.9587" gradientUnits="userSpaceOnUse">
<stop stop-color="#5217FF"/>
<stop offset="1" stop-color="#F84C86"/>
</linearGradient>
</defs>
</svg>
