<svg width="408" height="325" viewBox="0 0 408 325" fill="none" xmlns="http://www.w3.org/2000/svg">
<g clip-path="url(#clip0)">
<path d="M315.29 197.04L324.89 195.41L324.67 202.69L313.35 207L315.29 197.04Z" fill="#F84C86"/>
<path d="M301.14 223.45L289.55 219.47L290.86 204.51L302.71 199.36L301.14 223.45Z" fill="#F84C86"/>
<path opacity="0.14" d="M164.63 314.44C195.453 314.44 220.44 309.323 220.44 303.01C220.44 296.697 195.453 291.58 164.63 291.58C133.807 291.58 108.82 296.697 108.82 303.01C108.82 309.323 133.807 314.44 164.63 314.44Z" fill="#5217FF"/>
<path d="M120.44 255.31L126.88 286.33C126.88 286.33 121 283.16 117.54 283.97C112.41 285.18 109.24 291.34 111.2 298.7L136.75 297.95L145.52 267.55L133.3 254.6L120.44 255.31Z" fill="#FF7B00"/>
<path d="M215.67 258.24L199.36 288.68C201.07 286.91 203.73 284.25 209.32 284.71C217.34 285.37 220.99 296.89 220.99 296.89L186.46 298.09L190.55 266.72L205.33 261.55L215.67 258.24Z" fill="#FF9800"/>
<path d="M226.71 243.83C226.71 243.83 225.92 258.52 203.37 268.75C180.82 278.98 141.47 271.77 117.6 254.06C93.7296 236.35 101.86 202.91 101.86 202.91L171.97 240.53L184.52 241.87L221.97 240.23L226.71 243.83Z" fill="#FFD000"/>
<path d="M100.48 197.98L119.43 128.85C119.43 128.85 99.11 126 98.88 113.35C98.65 100.7 111.6 102.21 116.17 103.96C120.74 105.7 123.22 107.82 123.22 107.82L144.77 93.47L221.34 105.9L228.75 113.51C228.75 113.51 241.49 126.96 249.2 137.2C256.91 147.44 258.03 154.53 257.49 160.77C256.95 167.01 252 189.86 251.16 192.4C250.32 194.94 248.51 196.48 241.78 194.82L229.55 232.69L226.16 242.31L205.76 241.72L184.52 241.87L169.99 240.51L153.65 229.08L100.48 197.98Z" fill="#F84C86"/>
<path d="M194.49 252.25L195.72 228.85L184.52 241.87L194.49 252.25Z" fill="#FF9800"/>
<path d="M166.21 235.77L99.8698 197.16L59.5698 208.13L168.76 241.72L166.21 235.77Z" fill="#FF7B00"/>
<path d="M229.49 230.22L242.05 245.51L194.99 242.68L195.16 239.47L229.49 230.22Z" fill="#FF9800"/>
<path d="M270.02 243.39C273 241.63 276.25 237.44 278.15 227.97C282.33 207.12 249.23 196.91 249.23 196.91C231.33 191.12 197.65 186.12 192.61 186.75C187.57 187.38 184.12 189.09 181.69 196.17C180.08 200.87 178.67 206.2 179.56 211.19C179.94 213.33 180.96 214.95 182.16 216.61C182.54 217.14 183.29 217.26 183.82 216.88L187.67 214.09C188.2 213.7 188.96 213.97 189.13 214.6L190.34 219.01C190.51 219.65 191.27 219.91 191.8 219.52L195.5 216.84C196.03 216.45 196.79 216.72 196.96 217.35L198.17 221.76C198.34 222.4 199.1 222.66 199.63 222.27L203.33 219.59C203.86 219.2 204.62 219.47 204.79 220.1L206 224.51C206.17 225.15 206.93 225.41 207.46 225.02L211.16 222.34C211.69 221.95 212.45 222.22 212.62 222.85L213.83 227.26C214 227.9 214.76 228.16 215.29 227.77L218.99 225.09C219.52 224.7 220.28 224.97 220.45 225.6L221.66 230.01C221.83 230.65 222.59 230.91 223.12 230.52L226.82 227.84C227.35 227.45 228.11 227.72 228.28 228.35L229.49 232.76C229.66 233.4 230.42 233.66 230.95 233.27L234.64 230.59C235.17 230.2 235.93 230.47 236.1 231.1L237.31 235.51C237.48 236.15 238.24 236.41 238.77 236.02L242.47 233.34C243 232.95 243.76 233.22 243.93 233.85L245.14 238.26C245.31 238.9 246.07 239.16 246.6 238.77L250.3 236.09C250.83 235.7 251.59 235.97 251.76 236.6L252.97 241.02C253.14 241.65 253.89 241.92 254.43 241.54L258.5 238.64C258.99 238.29 259.68 238.49 259.92 239.04L261.59 243.01C261.8 243.51 262.23 243.88 262.76 244.02C264.28 244.42 267.4 244.94 270.02 243.39Z" fill="#5217FF"/>
<path d="M219.47 91.09L240.7 4.52998C241.44 1.49998 244.39 -0.440018 247.46 0.079982C257.24 1.73998 277.69 8.70998 290.18 37.89C297.52 55.06 297.02 74.61 287.96 91.08C284.03 98.22 278.61 104.63 271.76 109.04C261.28 115.8 248.74 115.68 236.74 114.65C222.57 113.43 208.62 109.99 195.09 105.73C166.8 96.82 142.87 95.3 141.99 104.43C141.11 113.56 165 120.62 165 120.62L148.45 165.99L122.11 157.27L127.9 126.88C128.64 123.01 128.52 119.01 127.35 115.25C126.59 112.81 125.32 110.19 123.24 107.82C123.24 107.82 128.57 86.73 143.21 79.86C157.34 73.23 168.72 77.22 168.72 77.22L219.47 91.09Z" fill="#5217FF"/>
<path d="M145.34 246.36C145.34 246.36 142.98 239.58 140.99 239.88C139 240.18 137.53 246.22 137.53 246.22C137.53 246.22 129.2 245.93 129.28 248.06C129.35 250.2 133.78 253.73 133.78 253.73C133.78 253.73 131.86 259.33 133.56 259.92C135.25 260.51 141 256.09 141 256.09C141 256.09 146.6 262.95 148.59 260.95C149.92 259.62 147.85 253.43 147.85 253.43C147.85 253.43 153.45 250.7 153.08 248.86C152.72 247.04 145.34 246.36 145.34 246.36Z" fill="#FF9800"/>
<path d="M119.8 120.63C119.53 120.63 119.26 120.52 119.07 120.31L108.81 109.27C108.43 108.87 108.46 108.23 108.86 107.86C109.26 107.48 109.9 107.51 110.27 107.91L120.53 118.95C120.91 119.35 120.88 119.99 120.48 120.36C120.28 120.54 120.04 120.63 119.8 120.63Z" fill="#5217FF"/>
<path d="M110.65 119.41C110.36 119.41 110.07 119.28 109.87 119.03C109.53 118.6 109.6 117.97 110.03 117.62L114.64 113.93C115.07 113.59 115.7 113.66 116.05 114.09C116.39 114.52 116.32 115.15 115.89 115.5L111.28 119.19C111.09 119.33 110.87 119.41 110.65 119.41Z" fill="#5217FF"/>
<path d="M241.58 196.65C241.51 196.65 241.43 196.64 241.36 196.63C237.96 195.87 208.05 189.15 204.48 186.79C200.88 184.41 201.01 178.05 201.75 173.14C202.13 170.61 205.63 158.62 210.49 158.17C215.2 157.74 216.56 166.84 216.7 167.88C216.77 168.43 216.39 168.93 215.84 169C215.29 169.07 214.79 168.69 214.71 168.14C214.34 165.45 212.86 159.96 210.67 160.16C207.83 160.42 204.29 169.72 203.73 173.44C202.82 179.49 203.49 183.75 205.58 185.13C208.05 186.76 228.59 191.74 241.79 194.68C242.33 194.8 242.67 195.33 242.55 195.87C242.45 196.33 242.03 196.65 241.58 196.65Z" fill="#5217FF"/>
<path d="M145.58 173.67C145.49 173.67 145.4 173.66 145.31 173.63L120.1 166.61C119.57 166.46 119.26 165.91 119.4 165.38C119.55 164.85 120.1 164.54 120.63 164.68L145.84 171.7C146.37 171.85 146.68 172.4 146.54 172.93C146.42 173.38 146.02 173.67 145.58 173.67Z" fill="#5217FF"/>
<path d="M142.92 178.29C142.82 178.29 142.73 178.28 142.63 178.25L122.98 172.32C122.45 172.16 122.15 171.6 122.31 171.07C122.47 170.54 123.03 170.24 123.56 170.4L143.21 176.33C143.74 176.49 144.04 177.05 143.88 177.58C143.74 178.01 143.35 178.29 142.92 178.29Z" fill="#5217FF"/>
<path d="M141.02 182.37C140.93 182.37 140.84 182.36 140.75 182.33L127.42 178.55C126.89 178.4 126.58 177.85 126.73 177.32C126.88 176.79 127.43 176.48 127.96 176.63L141.29 180.41C141.82 180.56 142.13 181.11 141.98 181.64C141.86 182.08 141.46 182.37 141.02 182.37Z" fill="#5217FF"/>
<path d="M176.62 270.86C176.56 270.86 176.51 270.86 176.45 270.85C175.91 270.76 175.54 270.24 175.63 269.7L180.28 242.62C180.37 242.08 180.89 241.71 181.43 241.8C181.97 241.89 182.34 242.41 182.25 242.95L177.6 270.03C177.52 270.52 177.09 270.86 176.62 270.86Z" fill="#FF9800"/>
<path d="M184.52 241.87L159.49 220.1L172.92 251.44L184.52 241.87Z" fill="#FF9800"/>
<path d="M244.93 177.24C248.13 178.23 249.28 175.26 250.24 172.35C251.19 169.45 254.53 153.85 248.88 147.4C243.22 140.94 241.31 144.82 241.54 146.81C241.77 148.8 246.4 152.59 245.69 158.45C244.98 164.31 242.24 170.32 242.31 172.63C242.42 176.83 244.93 177.24 244.93 177.24Z" fill="#FF80AC"/>
<path d="M171.2 113.45C159.54 110.59 158.52 104.91 162.28 103.12C166.04 101.33 187.02 107.98 183.63 111.97C180.24 115.96 171.2 113.45 171.2 113.45Z" fill="#FF80AC"/>
<path opacity="0.76" d="M254.85 12.3C255.15 12.14 255.47 11.97 255.84 11.89C259.95 11.05 266.78 16.51 270.06 20.17C274.85 25.5 280.67 32.95 281.39 40.37C281.64 42.91 281.41 45.2 279.01 46.63C274.83 49.11 267.05 43.07 263.37 38.93C258.62 33.57 252.83 26.09 252.15 18.67C251.92 16.09 252.57 13.52 254.85 12.3Z" fill="#9A78FF"/>
<path d="M119.8 76.49C119.44 76.49 119.09 76.3 118.91 75.95C118.65 75.46 118.84 74.86 119.33 74.6L161.16 52.63C161.65 52.38 162.25 52.56 162.51 53.05C162.77 53.54 162.58 54.14 162.09 54.4L120.26 76.37C120.11 76.45 119.95 76.49 119.8 76.49Z" fill="#FFD000"/>
<path d="M149.77 59.75C149.77 59.75 141.27 36.04 133.1 38.98C124.93 41.92 135.46 52.45 135.46 52.45C135.46 52.45 119.07 36.77 115.26 43.14C111.45 49.51 118.47 60.57 135.42 67.29L149.77 59.75Z" fill="#FFD000"/>
<path d="M211.12 145.06C211.95 144.69 212.73 144.23 213.38 143.61C213.65 143.35 213.91 143.05 213.99 142.69C214.62 139.93 209.34 139.87 207.82 139.6C205.09 139.12 202.26 138.17 200.79 135.64C200.71 135.51 200.64 135.37 200.57 135.23C197.76 129.55 190.17 137.14 197.17 143C199.34 144.82 201.93 146.62 204.87 146.58C206.28 146.56 207.68 146.22 209.03 145.81C209.73 145.6 210.44 145.36 211.12 145.06Z" fill="#5217FF"/>
<path d="M220.26 142.96C219.74 146.04 223.3 146.04 226.17 144.06C228.97 142.13 235.58 138.08 233.9 132.81C233.31 130.96 231.42 127.86 228.88 129.27C227.13 130.24 226.72 132.18 226.6 133.95C226.46 135.92 225.54 137.78 224.06 138.97C222.98 139.85 221.6 140.41 220.81 141.58C220.52 142.02 220.34 142.48 220.26 142.96Z" fill="#5217FF"/>
<path d="M215.66 132.51C210.21 132.51 207.8 124.92 207.7 124.6C207.54 124.07 207.83 123.51 208.36 123.35C208.89 123.19 209.45 123.48 209.61 124.01C209.63 124.08 211.68 130.51 215.66 130.51C215.69 130.51 215.73 130.51 215.76 130.51C216.49 130.49 217.01 130.29 217.36 129.89C218.03 129.13 217.93 127.88 217.93 127.87C217.88 127.32 218.28 126.83 218.83 126.78C219.38 126.74 219.87 127.12 219.92 127.67C219.94 127.88 220.1 129.81 218.87 131.2C218.14 132.03 217.11 132.47 215.81 132.51C215.77 132.5 215.72 132.51 215.66 132.51Z" fill="#5217FF"/>
<path d="M101.35 166.37L94.8201 156.74L74.6001 158.78L75.0401 181.92L97.3101 176.7L96.4801 170.06L101.35 166.37Z" fill="#F84C86"/>
<path d="M351.91 179.45L349.36 180.19L346.71 171.1L349.26 170.36C350.53 169.99 351.86 170.72 352.23 171.99L353.54 176.48C353.91 177.75 353.18 179.08 351.91 179.45Z" fill="#5217FF"/>
<path d="M345.44 169.16C344.67 168.56 343.67 168.36 342.73 168.6C337.99 169.81 322.7 173.75 312.97 176.52C301.33 179.83 290.78 182.03 289.17 184.49C287.57 186.94 286.22 193.08 290.59 198.03C294.96 202.99 295.26 201.68 296.68 207.3C298.1 212.92 298.35 226.74 299.72 229.68C301.09 232.63 302.4 231.88 304.9 231.22C307.4 230.56 315.62 228.82 317 227.32C318.38 225.83 318.78 223.96 318.2 220.72C317.62 217.48 316.52 202.52 316.69 198.62C316.86 194.72 318.7 194.54 320.22 194.03C321.74 193.51 347.26 183.52 348.21 183.02C349.16 182.53 349.53 179.01 349.32 178.14C349.11 177.27 347.48 171.19 346.83 170.4C346.54 170.05 345.97 169.58 345.44 169.16Z" fill="#FFD000"/>
<path d="M315.6 207.42C315.17 207.42 314.78 207.14 314.64 206.72C314.48 206.19 314.77 205.63 315.3 205.47C320.04 204 327.62 201.39 329.06 200.23C330.01 199.47 329.47 194.48 328.4 190.48C328.26 189.95 328.57 189.4 329.11 189.26C329.64 189.12 330.19 189.43 330.33 189.97C330.94 192.25 332.74 199.84 330.31 201.8C328.11 203.58 317.13 207.01 315.89 207.4C315.8 207.41 315.7 207.42 315.6 207.42Z" fill="#FFD000"/>
<path d="M321.21 220.59L311.52 223.42L310.83 205.82H322.26L321.21 220.59Z" fill="#F84C86"/>
<path d="M386.94 178.92C384.51 177.03 385.42 173.85 387.84 172.14C390.85 170.01 394.91 170.13 398.12 171.71C401.67 173.46 404.76 176.6 406.28 180.28C406.81 181.57 407.25 183.11 406.92 184.51C406.45 186.48 404.44 186.82 402.64 186.6C400.42 186.33 398.31 185.55 396.53 184.18C395.06 183.05 393.68 181.77 391.99 181.01C390.58 180.37 389.01 180.12 387.66 179.39C387.4 179.25 387.16 179.09 386.94 178.92Z" fill="white"/>
<path d="M375.01 173.62C374.59 173.67 374.18 173.67 373.8 173.61C370.86 173.1 369.73 169.34 371.92 167.36C375.02 164.56 380.82 168.24 379.63 170.6C378.86 172.09 376.84 173.38 375.01 173.62Z" fill="white"/>
<path d="M47.76 302.64C44.28 302.64 40.94 301.76 37.96 300C33.66 297.46 31.5 293.46 30.85 289.11C25.44 287.52 20.16 283.58 17.2 278.47C13.31 271.75 14.05 264.36 19.28 257.64C23.62 252.07 28.34 249.17 33.29 249.03C40.32 248.85 45.06 254.22 45.26 254.45C45.62 254.87 45.58 255.5 45.16 255.86C44.74 256.22 44.11 256.18 43.75 255.77C43.71 255.72 39.52 251.03 33.65 251.03C33.54 251.03 33.44 251.03 33.33 251.03C29.01 251.16 24.81 253.79 20.86 258.87C16.16 264.9 15.47 271.51 18.93 277.47C21.46 281.84 26 285.34 30.65 286.93C30.52 283.23 31.37 279.4 32.86 276.08C36.14 268.74 41.86 264.69 46.75 266.25C50.77 267.53 52.87 270.67 52.52 274.87C52 281.11 45.99 288.57 37.88 289.73C36.28 289.96 34.6 289.9 32.9 289.6C33.76 293.58 36.09 296.58 38.97 298.29C44.7 301.67 51.94 301.4 58.83 297.55C66.5 293.27 71.93 285.66 72.06 279.05C72.08 278.13 72.03 277.24 71.92 276.39C70.47 277.61 68.91 278.53 67.32 279.05C60.58 281.24 56.14 278.66 54.37 275.78C52.58 272.86 53.09 269.32 55.66 266.75C58.33 264.08 62.5 263.4 66.28 265.01C69.46 266.36 71.79 268.98 73.03 272.43C75.28 269.65 77.06 265.97 77.92 261.98C79.45 254.91 77.78 248.53 73.35 244.49C71.05 242.39 68.64 241.29 66.33 240.88C67.15 242.17 67.81 244.27 67.27 247.54C66.66 251.23 61.72 256.42 57.03 256.98C54.25 257.31 52.05 255.93 50.84 253.09C49.21 249.26 51.07 244.59 55.46 241.48C60.02 238.25 67.79 236.71 74.69 243.01C79.66 247.55 81.55 254.62 79.87 262.4C78.84 267.19 76.56 271.57 73.66 274.71C73.94 276.08 74.07 277.54 74.05 279.09C73.92 286.38 68.05 294.68 59.8 299.3C55.82 301.51 51.7 302.64 47.76 302.64ZM32.6 287.48C34.32 287.87 36.02 287.97 37.61 287.75C44.67 286.74 50.09 280.07 50.54 274.71C50.7 272.84 50.33 269.49 46.16 268.16C41.63 266.71 37.04 271.68 34.71 276.9C32.94 280.82 32.35 284.38 32.6 287.48ZM62.15 266.13C60.23 266.13 58.41 266.82 57.08 268.15C55.16 270.07 54.78 272.59 56.08 274.72C57.47 276.98 61.08 278.97 66.7 277.14C68.37 276.6 69.99 275.55 71.47 274.12C70.51 270.68 68.43 268.08 65.49 266.83C64.4 266.36 63.25 266.13 62.15 266.13ZM63.35 240.7C60.76 240.87 58.41 241.84 56.64 243.1C53.09 245.61 51.47 249.39 52.7 252.3C53.56 254.33 54.91 255.21 56.81 254.98C60.47 254.54 64.84 250.09 65.31 247.2C66.14 242.15 63.65 240.88 63.55 240.83C63.47 240.79 63.41 240.75 63.35 240.7Z" fill="#FFD000"/>
<path d="M32.91 324.37C32.28 324.37 31.63 324.33 30.97 324.26C24.45 323.54 15.65 318.97 10.47 308.28C8.79002 304.81 8.37002 301.31 8.79002 298C5.80002 296.45 3.57002 294.01 2.13002 290.72C-1.42998 282.56 0.420021 269.54 7.08002 255.87C11.44 246.93 20.09 241.17 28.53 239.01C31.92 235.8 37.19 233.88 43.28 233.78C49.66 233.66 55.54 236.74 60.37 242.65C63.33 246.27 65.02 249.87 65.57 251.13C66.76 251.51 69.74 252.72 72.46 256.02C77.03 261.56 75.63 270.64 75.17 273.02C78.87 276.82 79.67 284.59 77.68 297.36C75.86 309.03 65.18 322.13 50.44 323.85C46.84 324.27 43.48 323.58 40.58 322.19C38.46 323.61 35.82 324.37 32.91 324.37ZM10.7 298.84C10.45 301.62 10.87 304.53 12.27 307.41C16.24 315.61 23.66 321.44 31.19 322.27C33.96 322.58 36.5 322.15 38.56 321.06C34.92 318.75 32.21 315.34 30.93 311.89C29.36 307.68 30.07 304.05 32.83 302.18C35.81 300.16 39.42 300.81 42.27 303.87C45.81 307.68 47.31 314.57 43.13 319.84C42.87 320.17 42.6 320.47 42.3 320.77C44.68 321.74 47.35 322.19 50.21 321.86C64.01 320.25 74.01 307.98 75.71 297.05C77.63 284.71 76.88 277.2 73.42 274.1L72.98 273.7L73.12 273.12C73.14 273.02 75.48 262.79 70.94 257.29C67.98 253.7 64.68 252.94 64.64 252.93L64.12 252.81L63.92 252.31C63.85 252.14 57.3 235.77 43.62 235.77C43.53 235.77 43.43 235.77 43.34 235.77C39.43 235.83 35.91 236.7 33.11 238.19C34.96 238 36.76 238 38.46 238.19C44 238.81 47.71 241.45 48.65 245.43C50.11 251.67 46.51 255.89 42.64 257.76C37.99 260.01 31.22 259.7 27.29 254.75C24.42 251.13 23.83 246.81 25.68 242.9C25.87 242.51 26.07 242.12 26.3 241.75C19.29 244.21 12.51 249.3 8.89002 256.74C2.48002 269.89 0.650021 282.29 3.97002 289.91C5.12002 292.55 6.86002 294.56 9.17002 295.91C10.63 289.75 14.86 284.49 18.96 281.75C23.3 278.84 27.44 278.67 29.78 281.28C32.48 284.31 32.56 288.88 29.97 292.92C26.83 297.83 19.93 301.65 11.56 299.11C11.27 299.04 10.99 298.94 10.7 298.84ZM36.45 303.02C35.66 303.02 34.82 303.25 33.95 303.83C32.01 305.15 31.58 307.9 32.8 311.19C34.04 314.51 36.75 317.78 40.37 319.83C40.8 319.46 41.2 319.04 41.56 318.59C45.05 314.2 43.77 308.43 40.8 305.23C40.21 304.6 38.54 303.02 36.45 303.02ZM11.01 296.82C11.38 296.97 11.76 297.1 12.15 297.22C19.51 299.45 25.56 296.14 28.29 291.87C30.41 288.55 30.41 285.01 28.29 282.64C26.35 280.47 22.77 281.63 20.07 283.44C16.22 286 12.22 291.01 11.01 296.82ZM29.57 240.8C28.7 241.69 28 242.68 27.49 243.76C25.98 246.96 26.47 250.51 28.85 253.51C32.13 257.63 37.83 257.87 41.76 255.96C45.86 253.98 47.7 250.21 46.69 245.89C45.96 242.78 42.88 240.7 38.23 240.18C35.54 239.88 32.57 240.1 29.57 240.8Z" fill="#FFD000"/>
<path d="M68.5503 321.59C68.2403 321.59 67.9403 321.45 67.7503 321.19L61.5103 312.81C61.1803 312.37 61.2703 311.74 61.7203 311.41C62.1603 311.08 62.7903 311.17 63.1203 311.62L69.3603 320C69.6903 320.44 69.6003 321.07 69.1503 321.4C68.9703 321.52 68.7603 321.59 68.5503 321.59Z" fill="#FFD000"/>
<path d="M14.3902 258.1C14.2102 258.1 14.0302 258.05 13.8702 257.96L4.57016 252.32C4.10016 252.03 3.95016 251.42 4.23016 250.95C4.52016 250.48 5.13015 250.33 5.60015 250.61L14.9002 256.25C15.3702 256.54 15.5202 257.15 15.2402 257.62C15.0602 257.93 14.7302 258.1 14.3902 258.1Z" fill="#FFD000"/>
<path d="M11.5701 261.63C11.4701 261.63 11.3701 261.61 11.2701 261.58L0.700074 258.2C0.170074 258.03 -0.119926 257.47 0.0500735 256.94C0.220074 256.41 0.780074 256.13 1.31007 256.29L11.8801 259.67C12.4101 259.84 12.7001 260.4 12.5301 260.93C12.3901 261.36 12.0001 261.63 11.5701 261.63Z" fill="#FFD000"/>
<path d="M73.4801 250.85C73.1701 250.85 72.8601 250.7 72.6601 250.43C72.3401 249.98 72.4501 249.36 72.9001 249.04L80.3101 243.81C80.7601 243.49 81.3801 243.6 81.7001 244.05C82.0201 244.5 81.9101 245.12 81.4601 245.44L74.0501 250.67C73.8801 250.79 73.6801 250.85 73.4801 250.85Z" fill="#FFD000"/>
</g>
<defs>
<clipPath id="clip0">
<rect width="407.05" height="324.37" fill="white"/>
</clipPath>
</defs>
</svg>
