<svg width="319" height="416" viewBox="0 0 319 416" fill="none" xmlns="http://www.w3.org/2000/svg">
<g clip-path="url(#clip0)">
<path opacity="0.58" d="M123.84 0L0 383.59H276.76L216.05 31.69L123.84 0Z" fill="white"/>
<path opacity="0.14" d="M202.03 415.6C232.853 415.6 257.84 408.432 257.84 399.59C257.84 390.748 232.853 383.58 202.03 383.58C171.207 383.58 146.22 390.748 146.22 399.59C146.22 408.432 171.207 415.6 202.03 415.6Z" fill="#5217FF"/>
<path d="M72.1402 336.53L34.7002 360.14L41.6202 370.11L82.3202 351.18L72.1402 336.53Z" fill="#5217FF"/>
<path d="M84.8 353.9C92.3995 353.9 98.56 347.739 98.56 340.14C98.56 332.541 92.3995 326.38 84.8 326.38C77.2006 326.38 71.04 332.541 71.04 340.14C71.04 347.739 77.2006 353.9 84.8 353.9Z" fill="#FFD000"/>
<path d="M63.5699 339.33L64.4099 353.83L44.0499 360.52L37.6299 350.76L63.5699 339.33Z" fill="#F84C86"/>
<path d="M60.8798 361.15L48.8398 366.75L56.7198 372.91L71.0298 365L68.5898 348.26L59.2298 349.89L60.8798 361.15Z" fill="#F84C86"/>
<path d="M229.74 347.19L223.3 378.21C223.3 378.21 229.18 375.04 232.64 375.85C237.77 377.06 240.94 383.22 238.98 390.58L213.43 389.83L204.66 359.43L216.88 346.47L229.74 347.19Z" fill="#FF7B00"/>
<path d="M183.97 364.76L199.26 382.48C197.3 380.99 194.27 378.76 188.82 380.06C180.99 381.92 179.12 393.86 179.12 393.86L213.44 389.85L204.67 359.45L189.28 356.56L183.97 364.76Z" fill="#FF9800"/>
<path d="M123.48 335.71C123.48 335.71 124.27 350.4 146.82 360.63C169.38 370.86 208.72 363.65 232.59 345.94C256.46 328.23 248.33 294.79 248.33 294.79L178.22 332.41L165.67 333.75L128.22 332.11L123.48 335.71Z" fill="#FFD000"/>
<path d="M250.31 289.04L251.36 237.32C251.36 237.32 271.77 239.39 275.01 227.16C278.24 214.93 265.31 213.31 260.46 213.92C255.61 214.53 252.69 215.99 252.69 215.99L235.18 196.92L157.85 190.76L148.84 196.39C148.84 196.39 133.26 206.42 123.33 214.53C113.41 222.64 110.63 229.26 109.67 235.45C108.71 241.64 108.07 265.01 108.28 267.68C108.49 270.35 109.88 272.27 116.82 272.27L119.68 311.96L120.68 322.11L137.08 330.73L160.09 333.52L175.66 333.75L194.25 326.55L250.31 289.04Z" fill="#F84C86"/>
<path d="M155.69 344.13L154.47 320.73L165.66 333.75L155.69 344.13Z" fill="#FF9800"/>
<path d="M183.97 327.65L250.31 289.04L290.62 300.01L181.42 333.6L183.97 327.65Z" fill="#FF7B00"/>
<path d="M120.69 322.1L108.13 337.39L155.19 334.56L155.02 331.35L120.69 322.1Z" fill="#FF9800"/>
<path d="M77.8298 312.7C75.3598 310.28 73.1998 305.44 73.6098 295.78C74.5098 274.53 109.1 272.5 109.1 272.5C127.86 271.14 161.77 274.31 166.51 276.12C171.26 277.93 174.2 280.41 174.87 287.87C175.32 292.82 175.42 298.33 173.36 302.96C172.48 304.95 171.1 306.28 169.54 307.61C169.04 308.04 168.29 307.97 167.86 307.47L164.78 303.84C164.35 303.34 163.56 303.42 163.24 303.99L161.01 307.99C160.69 308.57 159.89 308.64 159.47 308.14L156.51 304.65C156.08 304.15 155.29 304.22 154.97 304.8L152.75 308.79C152.43 309.37 151.63 309.44 151.21 308.94L148.25 305.45C147.82 304.95 147.03 305.03 146.71 305.6L144.48 309.59C144.16 310.17 143.36 310.24 142.94 309.74L139.98 306.25C139.55 305.75 138.76 305.83 138.44 306.4L136.22 310.39C135.9 310.97 135.1 311.04 134.68 310.54L131.73 307.05C131.3 306.55 130.51 306.62 130.19 307.2L127.97 311.19C127.65 311.77 126.85 311.84 126.43 311.34L123.48 307.85C123.05 307.35 122.26 307.42 121.94 308L119.72 311.99C119.4 312.57 118.6 312.64 118.18 312.14L115.23 308.65C114.8 308.15 114.01 308.22 113.69 308.8L111.47 312.79C111.15 313.37 110.35 313.44 109.93 312.94L106.98 309.45C106.55 308.95 105.76 309.02 105.44 309.6L103.22 313.59C102.9 314.17 102.1 314.24 101.68 313.74L98.7298 310.25C98.2998 309.75 97.5098 309.82 97.1898 310.4L94.9598 314.4C94.6398 314.97 93.8498 315.05 93.4198 314.56L90.1598 310.77C89.7698 310.31 89.0498 310.34 88.6898 310.82L86.1198 314.28C85.7998 314.72 85.2898 314.97 84.7498 314.98C83.1698 315.07 80.0098 314.83 77.8298 312.7Z" fill="#5217FF"/>
<path d="M163.2 176.82V87.7C163.2 84.58 160.8 82 157.69 81.77C147.8 81.05 126.27 82.95 107.2 108.32C95.9799 123.24 91.8099 142.36 96.6899 160.5C98.7999 168.37 102.54 175.89 108.14 181.8C116.71 190.86 128.92 193.73 140.82 195.59C154.87 197.78 169.24 197.76 183.4 196.85C213 194.93 236.6 199.16 235.28 208.23C233.96 217.3 209.08 218.48 209.08 218.48L214.35 266.49L242.01 264.29L243.63 233.39C243.84 229.46 244.9 225.59 246.93 222.23C248.25 220.04 250.11 217.8 252.69 215.99C252.69 215.99 252.54 194.24 239.96 184.08C227.81 174.27 215.81 175.44 215.81 175.44L163.2 176.82Z" fill="#5217FF"/>
<path d="M204.84 338.24C204.84 338.24 207.2 331.46 209.19 331.76C211.18 332.06 212.65 338.1 212.65 338.1C212.65 338.1 220.98 337.81 220.9 339.94C220.83 342.08 216.4 345.61 216.4 345.61C216.4 345.61 218.32 351.21 216.62 351.8C214.93 352.39 209.18 347.97 209.18 347.97C209.18 347.97 203.58 354.83 201.59 352.83C200.26 351.5 202.33 345.31 202.33 345.31C202.33 345.31 196.73 342.58 197.1 340.74C197.46 338.92 204.84 338.24 204.84 338.24Z" fill="#FF9800"/>
<path d="M154.07 229.91C156.357 229.91 158.21 226.176 158.21 221.57C158.21 216.964 156.357 213.23 154.07 213.23C151.784 213.23 149.93 216.964 149.93 221.57C149.93 226.176 151.784 229.91 154.07 229.91Z" fill="#5217FF"/>
<path d="M166.93 236.6C169.216 236.6 171.07 232.866 171.07 228.26C171.07 223.654 169.216 219.92 166.93 219.92C164.644 219.92 162.79 223.654 162.79 228.26C162.79 232.866 164.644 236.6 166.93 236.6Z" fill="#5217FF"/>
<path d="M253.21 229.28C252.88 229.28 252.57 229.12 252.37 228.83C252.07 228.37 252.2 227.75 252.66 227.45L265.25 219.17C265.71 218.87 266.33 218.99 266.63 219.46C266.93 219.92 266.8 220.54 266.34 220.84L253.75 229.12C253.59 229.23 253.4 229.28 253.21 229.28Z" fill="#5217FF"/>
<path d="M262.39 230.27C262.09 230.27 261.79 230.14 261.6 229.88L258 225.2C257.66 224.76 257.75 224.13 258.18 223.8C258.62 223.46 259.24 223.54 259.58 223.98L263.18 228.66C263.52 229.1 263.43 229.73 263 230.06C262.82 230.21 262.6 230.27 262.39 230.27Z" fill="#5217FF"/>
<path d="M134.09 274.29C126.05 274.29 118.44 274.14 116.81 274.11C116.26 274.1 115.82 273.64 115.83 273.09C115.84 272.55 116.29 272.11 116.83 272.11C116.84 272.11 116.84 272.11 116.85 272.11C130.38 272.39 151.52 272.45 154.3 271.46C156.66 270.62 158.33 266.64 158.88 260.55C159.22 256.81 158 246.93 155.3 246C153.19 245.26 150.47 250.26 149.47 252.79C149.27 253.3 148.69 253.55 148.17 253.35C147.66 253.15 147.4 252.57 147.61 252.05C147.99 251.07 151.49 242.55 155.95 244.1C160.56 245.7 161.1 258.17 160.87 260.72C160.42 265.67 159.03 271.88 154.97 273.33C152.83 274.1 143.19 274.29 134.09 274.29Z" fill="#5217FF"/>
<path d="M215.54 274.66C215 274.66 214.56 274.23 214.54 273.69C214.52 273.14 214.96 272.68 215.51 272.66L241.67 271.85C242.22 271.85 242.68 272.27 242.7 272.82C242.72 273.37 242.28 273.83 241.73 273.85L215.57 274.66C215.56 274.66 215.55 274.66 215.54 274.66Z" fill="#5217FF"/>
<path d="M217.02 279.78C216.49 279.78 216.05 279.37 216.02 278.83C215.99 278.28 216.41 277.81 216.97 277.78L237.46 276.7C238.03 276.66 238.48 277.1 238.51 277.65C238.54 278.2 238.12 278.67 237.56 278.7L217.07 279.78C217.05 279.78 217.04 279.78 217.02 279.78Z" fill="#5217FF"/>
<path d="M217.89 284.19C217.35 284.19 216.91 283.77 216.89 283.23C216.87 282.68 217.3 282.21 217.85 282.19L231.7 281.69C232.24 281.64 232.72 282.1 232.74 282.65C232.76 283.2 232.33 283.67 231.78 283.69L217.93 284.19C217.91 284.19 217.9 284.19 217.89 284.19Z" fill="#5217FF"/>
<path d="M279.95 135.8L295.4 152.35L285.2 172.49L267.81 154.01L279.95 135.8Z" fill="#FFD000"/>
<path d="M307.54 124.21L297.33 114.28L306.71 100.48L316.1 112.62L307.54 124.21Z" fill="#FFD000"/>
<path d="M173.57 362.74C173.09 362.74 172.67 362.4 172.59 361.91L167.94 334.83C167.85 334.29 168.21 333.77 168.76 333.68C169.31 333.58 169.82 333.95 169.91 334.5L174.56 361.58C174.65 362.12 174.29 362.64 173.74 362.73C173.68 362.74 173.62 362.74 173.57 362.74Z" fill="#FF9800"/>
<path d="M165.66 333.75L190.69 311.98L177.26 343.32L165.66 333.75Z" fill="#FF9800"/>
<path d="M117.96 254.43C114.61 254.63 114.2 251.47 113.97 248.42C113.74 245.37 114.2 229.43 121.24 224.51C128.27 219.59 129.21 223.81 128.51 225.68C127.81 227.56 122.42 230.13 121.71 235.99C121.01 241.85 122.23 248.34 121.62 250.57C120.49 254.64 117.96 254.43 117.96 254.43Z" fill="#FF80AC"/>
<path d="M204.75 210.04C216.76 210.04 219.1 204.77 215.88 202.13C212.66 199.49 190.7 200.96 193.04 205.64C195.38 210.33 204.75 210.04 204.75 210.04Z" fill="#FF80AC"/>
<path opacity="0.76" d="M147.6 91.88C147.35 91.65 147.08 91.41 146.74 91.25C142.95 89.46 135.02 93.13 130.96 95.9C125.04 99.94 117.61 105.79 115.14 112.82C114.29 115.23 113.97 117.5 115.96 119.46C119.43 122.86 128.43 118.85 132.98 115.7C138.87 111.63 146.27 105.74 148.7 98.69C149.54 96.26 149.53 93.61 147.6 91.88Z" fill="#9A78FF"/>
<path d="M285.47 265.74L281.61 287.03L312.49 291.29L318.66 267.52L303.39 267.4L301.73 259.1L285.47 265.74Z" fill="#F84C86"/>
<path d="M315.24 275.53C315.23 275.53 315.23 275.53 315.24 275.53L304.92 275.44C304.37 275.44 303.92 274.98 303.93 274.43C303.93 273.88 304.38 273.44 304.93 273.44H304.94L315.25 273.53C315.8 273.53 316.25 273.99 316.24 274.54C316.23 275.09 315.78 275.53 315.24 275.53Z" fill="#5217FF"/>
<path d="M314.53 285.61C314.45 285.61 314.37 285.6 314.3 285.58L301.33 282.46C300.79 282.33 300.46 281.79 300.59 281.25C300.72 280.71 301.26 280.38 301.8 280.51L314.77 283.63C315.31 283.76 315.64 284.3 315.51 284.84C315.39 285.3 314.98 285.61 314.53 285.61Z" fill="#5217FF"/>
<path d="M50.29 357.63C49.91 357.63 49.54 357.41 49.37 357.03L47.5 352.77C47.28 352.27 47.51 351.67 48.01 351.45C48.52 351.23 49.11 351.46 49.33 351.96L51.2 356.22C51.42 356.72 51.19 357.32 50.69 357.54C50.56 357.6 50.42 357.63 50.29 357.63Z" fill="#5217FF"/>
<path d="M58.4801 357.53C58.0601 357.53 57.6601 357.26 57.5301 356.84L54.6101 347.74C54.4401 347.21 54.7301 346.65 55.2601 346.48C55.7901 346.31 56.3501 346.6 56.5201 347.13L59.4401 356.23C59.6101 356.76 59.3201 357.32 58.7901 357.49C58.6901 357.52 58.5801 357.53 58.4801 357.53Z" fill="#5217FF"/>
</g>
<defs>
<clipPath id="clip0">
<rect width="318.66" height="415.6" fill="white"/>
</clipPath>
</defs>
</svg>
