<svg width="440" height="440" viewBox="0 0 440 440" fill="none" xmlns="http://www.w3.org/2000/svg">
<path fill-rule="evenodd" clip-rule="evenodd" d="M95.803 401.616L176.687 261.521C168.874 253.373 163.338 243.025 161.101 231.5H0.29541C3.93408 302.159 40.9119 364.007 95.803 401.616ZM121.65 416.847L202.207 277.318C207.829 279.061 213.805 280 220 280C226.195 280 232.171 279.061 237.793 277.318L318.35 416.846C288.753 431.662 255.35 440 220 440C184.65 440 151.247 431.662 121.65 416.847ZM344.197 401.616L263.313 261.521C271.126 253.373 276.662 243.025 278.899 231.5H439.705C436.066 302.159 399.088 364.006 344.197 401.616ZM439.233 201.5C433.491 132.534 395.938 72.6041 341.287 36.4244L260.734 175.946C268.19 182.843 273.891 191.609 277.094 201.5H439.233ZM315.2 21.6084C286.392 7.75916 254.102 0 220 0C185.898 0 153.608 7.75916 124.8 21.6083L205.691 161.717C210.277 160.595 215.069 160 220 160C224.931 160 229.723 160.595 234.309 161.717L315.2 21.6084ZM98.7126 36.4244C44.0625 72.6041 6.50891 132.534 0.766846 201.5H162.906C166.109 191.609 171.81 182.843 179.266 175.946L98.7126 36.4244ZM250 220C250 236.568 236.569 250 220 250C203.431 250 190 236.568 190 220C190 203.431 203.431 190 220 190C236.569 190 250 203.431 250 220Z" fill="black"/>
</svg>
